<svg width="15" height="15" viewBox="0 0 15 15" fill="none" xmlns="http://www.w3.org/2000/svg">
<g clip-path="url(#clip0_273_744)">
<path d="M13.3112 1.32971L9.75843 1.32972V0.445415C9.75843 0.200267 9.55987 0.00170898 9.31472 0.00170898C9.06957 0.00170898 8.87101 0.200267 8.87101 0.445415V1.3295H5.32137V0.445415C5.32137 0.200267 5.12281 0.00170898 4.87766 0.00170898C4.63251 0.00170898 4.43395 0.200267 4.43395 0.445415V1.3295H0.887412C0.397339 1.3295 0 1.72684 0 2.21691V13.3096C0 13.7996 0.397339 14.197 0.887412 14.197H13.3112C13.8013 14.197 14.1986 13.7996 14.1986 13.3096V2.21691C14.1986 1.72705 13.8013 1.32971 13.3112 1.32971ZM13.3112 13.3096H0.887412V2.21691H4.43395V2.66394C4.43395 2.90908 4.63251 3.10765 4.87766 3.10765C5.12281 3.10765 5.32137 2.90908 5.32137 2.66394V2.21713H8.87101V2.66417C8.87101 2.90931 9.06957 3.10787 9.31472 3.10787C9.55987 3.10787 9.75843 2.90931 9.75843 2.66417V2.21713H13.3112V13.3096ZM10.2052 7.09788H11.0926C11.3376 7.09788 11.5364 6.8991 11.5364 6.65418V5.76677C11.5364 5.52184 11.3376 5.32306 11.0926 5.32306H10.2052C9.96031 5.32306 9.76153 5.52184 9.76153 5.76677V6.65418C9.76153 6.8991 9.96031 7.09788 10.2052 7.09788ZM10.2052 10.6473H11.0926C11.3376 10.6473 11.5364 10.4488 11.5364 10.2036V9.31619C11.5364 9.07127 11.3376 8.87249 11.0926 8.87249H10.2052C9.96031 8.87249 9.76153 9.07127 9.76153 9.31619V10.2036C9.76153 10.449 9.96031 10.6473 10.2052 10.6473ZM7.543 8.87249H6.65559C6.41066 8.87249 6.21188 9.07127 6.21188 9.31619V10.2036C6.21188 10.4488 6.41066 10.6473 6.65559 10.6473H7.543C7.78793 10.6473 7.98671 10.4488 7.98671 10.2036V9.31619C7.98671 9.07149 7.78793 8.87249 7.543 8.87249ZM7.543 5.32306H6.65559C6.41066 5.32306 6.21188 5.52184 6.21188 5.76677V6.65418C6.21188 6.8991 6.41066 7.09788 6.65559 7.09788H7.543C7.78793 7.09788 7.98671 6.8991 7.98671 6.65418V5.76677C7.98671 5.52162 7.78793 5.32306 7.543 5.32306ZM3.99335 5.32306H3.10594C2.86102 5.32306 2.66224 5.52184 2.66224 5.76677V6.65418C2.66224 6.8991 2.86102 7.09788 3.10594 7.09788H3.99335C4.23828 7.09788 4.43706 6.8991 4.43706 6.65418V5.76677C4.43706 5.52162 4.23828 5.32306 3.99335 5.32306ZM3.99335 8.87249H3.10594C2.86102 8.87249 2.66224 9.07127 2.66224 9.31619V10.2036C2.66224 10.4488 2.86102 10.6473 3.10594 10.6473H3.99335C4.23828 10.6473 4.43706 10.4488 4.43706 10.2036V9.31619C4.43706 9.07149 4.23828 8.87249 3.99335 8.87249Z" fill="#96A1B4"/>
</g>
<defs>
<clipPath id="clip0_273_744">
<rect width="14.1986" height="14.1986" fill="white"/>
</clipPath>
</defs>
</svg>
