<svg width="20" height="20" viewBox="0 0 20 20" fill="none" xmlns="http://www.w3.org/2000/svg">
<g clip-path="url(#clip0_273_837)">
<path d="M10 20C15.5228 20 20 15.5228 20 10C20 4.47715 15.5228 0 10 0C4.47715 0 0 4.47715 0 10C0 15.5228 4.47715 20 10 20Z" fill="#96A1B4"/>
<path fill-rule="evenodd" clip-rule="evenodd" d="M8.98976 10.105L6.36577 12.7289L7.27491 13.6381L9.89891 11.0141L12.6238 13.7389L13.5328 12.8299L10.808 10.105L13.6388 7.27412L12.7298 6.36499L9.89891 9.19587L7.1689 6.46587L6.25977 7.37501L8.98976 10.105Z" fill="white"/>
<mask id="mask0_273_837" style="mask-type:luminance" maskUnits="userSpaceOnUse" x="2" y="2" width="16" height="15">
<path d="M17.0718 2.54724H2.92969V16.6894H17.0718V2.54724Z" fill="white"/>
<path fill-rule="evenodd" clip-rule="evenodd" d="M8.99171 10.1051L6.36773 12.7291L7.27686 13.6382L9.90086 11.0142L12.6257 13.7391L13.5348 12.83L10.8099 10.1051L13.6408 7.27424L12.7317 6.36511L9.90086 9.19599L7.17085 6.46599L6.26172 7.37513L8.99171 10.1051Z" fill="black"/>
</mask>
<g mask="url(#mask0_273_837)">
<path d="M6.37798 12.6359L6.24199 12.4999L6.10602 12.6359L6.24199 12.7719L6.37798 12.6359ZM9.00196 10.012L9.13796 10.1479L9.27389 10.012L9.13796 9.876L9.00196 10.012ZM7.28712 13.5451L7.15113 13.6811L7.28712 13.817L7.4231 13.6811L7.28712 13.5451ZM9.91112 10.9211L10.047 10.7852L9.91112 10.6492L9.77512 10.7852L9.91112 10.9211ZM12.636 13.6459L12.5 13.7819L12.636 13.9179L12.7719 13.7819L12.636 13.6459ZM13.545 12.7368L13.681 12.8728L13.817 12.7368L13.681 12.6008L13.545 12.7368ZM10.8202 10.012L10.6843 9.876L10.5483 10.012L10.6843 10.1479L10.8202 10.012ZM13.651 7.1811L13.787 7.31708L13.923 7.1811L13.787 7.04512L13.651 7.1811ZM12.742 6.27197L12.8779 6.13598L12.742 6L12.606 6.13598L12.742 6.27197ZM9.91112 9.10285L9.77512 9.23877L9.91112 9.37477L10.047 9.23877L9.91112 9.10285ZM7.1811 6.37285L7.31709 6.23687L7.1811 6.10088L7.04512 6.23687L7.1811 6.37285ZM6.27197 7.28198L6.13598 7.146L6 7.28198L6.13598 7.41797L6.27197 7.28198ZM6.51396 12.7719L9.13796 10.1479L8.86596 9.876L6.24199 12.4999L6.51396 12.7719ZM7.4231 13.4091L6.51396 12.4999L6.24199 12.7719L7.15113 13.6811L7.4231 13.4091ZM9.77512 10.7852L7.15113 13.4091L7.4231 13.6811L10.047 11.0571L9.77512 10.7852ZM12.7719 13.51L10.047 10.7852L9.77512 11.0571L12.5 13.7819L12.7719 13.51ZM13.4091 12.6008L12.5 13.51L12.7719 13.7819L13.681 12.8728L13.4091 12.6008ZM10.6843 10.1479L13.4091 12.8728L13.681 12.6008L10.9562 9.876L10.6843 10.1479ZM13.5151 7.04512L10.6843 9.876L10.9562 10.1479L13.787 7.31708L13.5151 7.04512ZM12.606 6.40795L13.5151 7.31708L13.787 7.04512L12.8779 6.13598L12.606 6.40795ZM10.047 9.23877L12.8779 6.40795L12.606 6.13598L9.77512 8.96685L10.047 9.23877ZM7.04512 6.50883L9.77512 9.23877L10.047 8.96685L7.31709 6.23687L7.04512 6.50883ZM6.40795 7.41797L7.31709 6.50883L7.04512 6.23687L6.13598 7.146L6.40795 7.41797ZM9.13796 9.876L6.40795 7.146L6.13598 7.41797L8.86596 10.1479L9.13796 9.876Z" fill="white"/>
</g>
</g>
<defs>
<clipPath id="clip0_273_837">
<rect width="20" height="20" fill="white"/>
</clipPath>
</defs>
</svg>
