<svg width="15" height="16" viewBox="0 0 15 16" fill="none" xmlns="http://www.w3.org/2000/svg">
<path d="M13.9572 11.6262C13.5462 9.17264 12.3714 6.91129 10.6002 5.16425C10.2125 4.787 10.019 4.59875 9.59074 4.42475C9.16249 4.25 8.79424 4.25 8.05849 4.25H6.44149C5.70574 4.25 5.33749 4.25 4.90924 4.42475C4.48174 4.59875 4.28674 4.787 3.89974 5.16425C2.12858 6.91129 0.95381 9.17264 0.542736 11.6262C0.177486 13.8297 2.20999 15.5 4.48099 15.5H10.019C12.2907 15.5 14.324 13.8297 13.9565 11.6262" stroke="#96A1B4" stroke-linecap="round" stroke-linejoin="round"/>
<path d="M3.69289 2.33225C3.53764 2.10725 3.31339 1.80125 3.77689 1.73225C4.25314 1.66025 4.74739 1.98575 5.23189 1.97975C5.66914 1.973 5.89189 1.77875 6.13189 1.50125C6.38389 1.2095 6.77389 0.5 7.25014 0.5C7.72639 0.5 8.11639 1.2095 8.36839 1.50125C8.60839 1.77875 8.83114 1.97375 9.26839 1.979C9.75289 1.9865 10.2471 1.66025 10.7234 1.7315C11.1869 1.80125 10.9626 2.1065 10.8074 2.3315L10.1084 3.35075C9.80839 3.78575 9.65914 4.00325 9.34564 4.127C9.03214 4.25075 8.62789 4.25 7.81864 4.25H6.68164C5.87164 4.25 5.46739 4.25 5.15464 4.127C4.84189 4.004 4.69189 3.785 4.39189 3.35L3.69289 2.33225Z" stroke="#96A1B4" stroke-linejoin="round"/>
<path d="M8.47128 8.6889C8.30928 8.08965 7.48353 7.54965 6.49278 7.9539C5.50203 8.35815 5.34528 9.6579 6.84303 9.79665C7.52103 9.8589 7.96203 9.7239 8.36628 10.1057C8.77128 10.4867 8.84628 11.5479 7.81203 11.8337C6.77928 12.1194 5.75553 11.6732 5.64453 11.0387M7.13253 7.24365V7.8144M7.13253 11.9214V12.4944" stroke="#96A1B4" stroke-linecap="round" stroke-linejoin="round"/>
</svg>
