<svg width="15" height="16" viewBox="0 0 15 16" fill="none" xmlns="http://www.w3.org/2000/svg">
<path d="M7.5 5.75C8.94975 5.75 10.125 4.57475 10.125 3.125C10.125 1.67525 8.94975 0.5 7.5 0.5C6.05025 0.5 4.875 1.67525 4.875 3.125C4.875 4.57475 6.05025 5.75 7.5 5.75Z" stroke="#96A1B4"/>
<path d="M0.5 13.25C0.5 12.3217 0.868749 11.4315 1.52513 10.7751C2.1815 10.1187 3.07174 9.75 4 9.75H11C11.9283 9.75 12.8185 10.1187 13.4749 10.7751C14.1313 11.4315 14.5 12.3217 14.5 13.25C14.5 13.7141 14.3156 14.1592 13.9874 14.4874C13.6592 14.8156 13.2141 15 12.75 15H2.25C1.78587 15 1.34075 14.8156 1.01256 14.4874C0.684374 14.1592 0.5 13.7141 0.5 13.25Z" stroke="#96A1B4" stroke-linejoin="round"/>
</svg>
