<svg width="16" height="15" viewBox="0 0 16 15" fill="none" xmlns="http://www.w3.org/2000/svg">
<path d="M7.46009 0.385253C7.63003 -0.128418 8.36997 -0.128417 8.53991 0.385253L10.0393 4.91735C10.1153 5.14707 10.3332 5.3026 10.5792 5.3026L15.4312 5.3026C15.9812 5.3026 16.2098 5.99374 15.7649 6.31121L11.8395 9.11219C11.6405 9.25417 11.5573 9.50583 11.6333 9.73555L13.1327 14.2676C13.3026 14.7813 12.704 15.2085 12.2591 14.891L8.33368 12.09C8.13471 11.948 7.86529 11.948 7.66632 12.09L3.74093 14.891C3.29603 15.2085 2.69741 14.7813 2.86735 14.2676L4.36671 9.73555C4.44271 9.50583 4.35945 9.25417 4.16049 9.11219L0.235098 6.31121C-0.209808 5.99374 0.0188437 5.3026 0.568778 5.3026L5.42083 5.3026C5.66676 5.3026 5.88473 5.14707 5.96073 4.91735L7.46009 0.385253Z" fill="url(#paint0_radial_273_663)"/>
<defs>
<radialGradient id="paint0_radial_273_663" cx="0" cy="0" r="1" gradientUnits="userSpaceOnUse" gradientTransform="translate(8.75 10) rotate(45.971) scale(10.4313 11.1267)">
<stop stop-color="#EEBF52"/>
<stop offset="1" stop-color="#FFE6AC"/>
</radialGradient>
</defs>
</svg>
