<svg width="67" height="24" viewBox="0 0 67 24" fill="none" xmlns="http://www.w3.org/2000/svg">
<path d="M41.6045 18.9307C42.9806 18.9308 43.6689 19.617 43.6689 20.9902V23.874H42.2607V23.1807H42.2412C41.9171 23.7208 41.4379 23.9912 40.8037 23.9912C40.3356 23.9912 39.9673 23.8578 39.6982 23.5928C39.4293 23.3277 39.2949 22.9723 39.2949 22.5303C39.295 21.5942 39.8498 21.0542 40.959 20.9092L42.2695 20.7354C42.2695 20.2072 41.9832 19.9424 41.4121 19.9424C40.8409 19.9424 40.2906 20.1139 39.7715 20.457V19.3359C39.9785 19.2289 40.263 19.1348 40.6221 19.0527C40.9821 18.9707 41.3095 18.9307 41.6045 18.9307ZM57.2363 18.9307C58.6127 18.9307 59.3008 19.6168 59.3008 20.9902V23.874H57.8926V23.1807H57.874C57.55 23.7208 57.0706 23.9912 56.4365 23.9912C55.9684 23.9912 55.6001 23.8579 55.3311 23.5928C55.062 23.3277 54.9277 22.9724 54.9277 22.5303C54.9279 21.5942 55.4826 21.0542 56.5918 20.9092L57.9014 20.7354C57.9014 20.2073 57.6158 19.9425 57.0449 19.9424C56.4738 19.9424 55.9234 20.114 55.4043 20.457V19.3359C55.6113 19.229 55.895 19.1347 56.2539 19.0527C56.6139 18.9707 56.9413 18.9307 57.2363 18.9307ZM49.2227 22.1963C49.2537 22.3443 49.277 22.5235 49.293 22.7334H49.3213C49.3373 22.5136 49.3653 22.3287 49.4062 22.1777L50.2354 19.0488H51.6543L52.3984 22.1963C52.4174 22.2753 52.4389 22.4574 52.4639 22.7422H52.4971C52.5131 22.5603 52.5383 22.3782 52.5723 22.1963L53.1992 19.0488H54.5801L53.1895 23.875H51.625L50.9141 21.0469C50.8671 20.8579 50.84 20.6527 50.834 20.4297H50.8057C50.7837 20.6748 50.7529 20.8743 50.7119 21.0283L49.9482 23.875H48.4033L47.041 19.0488H48.5586L49.2227 22.1963ZM33.9277 19.8115H36.7275V17.1162H38.2549V23.874H36.7275V21.1211H33.9277V23.874H32.4053V17.1162H33.9277V19.8115ZM46.3369 23.874H44.8477V16.7285H46.3369V23.874ZM61.9697 23.874H60.4805V19.0479H61.9697V23.874ZM41.3936 21.7012C40.9097 21.7643 40.668 21.9825 40.668 22.3564C40.668 22.5264 40.7268 22.6654 40.8447 22.7734C40.9628 22.8815 41.1222 22.9365 41.3232 22.9365C41.6022 22.9365 41.8299 22.8394 42.0059 22.6465C42.1819 22.4534 42.2705 22.2092 42.2705 21.9131V21.5879L41.3936 21.7012ZM57.0264 21.7012C56.5424 21.7642 56.3008 21.9824 56.3008 22.3564C56.3008 22.5265 56.3595 22.6654 56.4775 22.7734C56.5955 22.8814 56.7542 22.9364 56.9551 22.9365C57.2342 22.9365 57.4626 22.8395 57.6387 22.6465C57.8147 22.4534 57.9023 22.2092 57.9023 21.9131V21.5879L57.0264 21.7012ZM61.2344 16.752C61.4853 16.752 61.6955 16.823 61.8545 16.9639C62.0134 17.1048 62.0927 17.2879 62.0928 17.5107C62.0928 17.7338 62.0135 17.9233 61.8545 18.0674C61.6955 18.2122 61.4893 18.2842 61.2344 18.2842C60.9835 18.2841 60.7772 18.2095 60.6172 18.0605C60.4572 17.9115 60.3779 17.7278 60.3779 17.5107C60.378 17.2939 60.4574 17.1058 60.6172 16.9639C60.7772 16.8229 60.9835 16.752 61.2344 16.752ZM58.623 13.4639C58.623 14.1461 58.8934 14.4863 59.4336 14.4863C59.7005 14.4863 59.9142 14.393 60.0742 14.2061C60.2342 14.0191 60.3144 13.7652 60.3145 13.4453V10.6836H61.7988V15.5098H60.3154V14.7744H60.292C59.9249 15.3435 59.4324 15.6278 58.8164 15.6279C57.6981 15.6279 57.1387 14.9501 57.1387 13.5957V10.6836H58.623V13.4639ZM64.8506 10.5654C65.0646 10.5654 65.2809 10.5813 65.501 10.6143C65.721 10.6473 65.9383 10.6948 66.1514 10.7578V11.9082C65.9633 11.7982 65.7609 11.7161 65.5459 11.6611C65.331 11.6062 65.12 11.5791 64.9121 11.5791C64.8151 11.5791 64.7228 11.5885 64.6357 11.6055C64.5487 11.6225 64.4722 11.6477 64.4072 11.6807C64.3424 11.7136 64.2899 11.7558 64.252 11.8076C64.214 11.8596 64.1954 11.9184 64.1953 11.9844C64.1953 12.0724 64.2233 12.1479 64.2803 12.2109C64.3373 12.274 64.4109 12.328 64.502 12.374C64.5929 12.42 64.6938 12.4601 64.8057 12.4961C64.9166 12.5321 65.0278 12.5685 65.1377 12.6064C65.3357 12.6754 65.5148 12.752 65.6748 12.833C65.8348 12.915 65.9719 13.0111 66.0869 13.1201C66.2019 13.2301 66.2905 13.3588 66.3516 13.5059C66.4126 13.6539 66.4434 13.8301 66.4434 14.0342C66.4434 14.3203 66.3809 14.5645 66.2568 14.7676C66.1328 14.9705 65.9677 15.1347 65.7617 15.2627C65.5557 15.3896 65.3187 15.483 65.0508 15.541C64.7818 15.599 64.5038 15.6279 64.2148 15.6279C63.6837 15.6279 63.1924 15.5458 62.7393 15.3828L62.7383 15.3818V14.1748C62.9834 14.3228 63.2276 14.4329 63.4717 14.5049C63.7147 14.5769 63.9451 14.6133 64.1621 14.6133C64.426 14.6132 64.6342 14.5769 64.7861 14.5049C64.9379 14.4329 65.0146 14.3227 65.0146 14.1748C65.0145 14.0811 64.9798 14.0023 64.9111 13.9395C64.8421 13.8764 64.7526 13.8214 64.6445 13.7744C64.5367 13.7275 64.4179 13.6844 64.2891 13.6475C64.1602 13.6095 64.0359 13.5674 63.917 13.5205C63.7249 13.4485 63.5562 13.3701 63.4102 13.2871C63.2642 13.2041 63.141 13.1071 63.043 12.9971C62.9441 12.8872 62.8694 12.7601 62.8174 12.6152C62.7654 12.4702 62.7393 12.2986 62.7393 12.1006C62.7393 11.8305 62.798 11.5974 62.916 11.4033C63.034 11.2083 63.1916 11.0488 63.3877 10.9248C63.5836 10.8009 63.8087 10.7103 64.0615 10.6523C64.3145 10.5943 64.5776 10.5654 64.8506 10.5654ZM39.2295 10.5664C40.6058 10.5664 41.2939 11.2526 41.2939 12.626V15.5098H39.8857V14.8164H39.8662C39.5421 15.3564 39.0628 15.627 38.4287 15.627C37.9609 15.6269 37.5932 15.4934 37.3242 15.2285C37.0551 14.9634 36.9209 14.6081 36.9209 14.166C36.9209 13.2299 37.4749 12.69 38.584 12.5449L39.8945 12.3701C39.8944 11.8423 39.6081 11.5781 39.0371 11.5781C38.466 11.5782 37.9156 11.7497 37.3965 12.0928V10.9707C37.6035 10.8637 37.888 10.7705 38.2471 10.6885C38.6072 10.6065 38.9344 10.5664 39.2295 10.5664ZM53.6797 10.5654C54.4928 10.5655 55.1093 10.7901 55.5654 11.2412C56.0205 11.6923 56.248 12.2891 56.248 13.0303C56.248 13.8313 56.013 14.4646 55.5439 14.9297C55.0738 15.3947 54.4304 15.627 53.6143 15.627H53.6133C52.8091 15.6269 52.1769 15.4013 51.7168 14.9502C51.2569 14.4991 51.0264 13.8882 51.0264 13.1152C51.0264 12.342 51.266 11.6923 51.7432 11.2412C52.2203 10.7902 52.8666 10.5654 53.6797 10.5654ZM48.5615 10.5664C49.6108 10.5664 50.1367 11.2134 50.1367 12.5078V15.5098H48.6514V12.7568C48.6514 12.0567 48.3929 11.7052 47.8779 11.7051C47.6329 11.7051 47.4323 11.8104 47.2793 12.0215C47.1253 12.2315 47.0489 12.4946 47.0488 12.8086V15.5098H45.5586V12.7285C45.5585 12.0464 45.3059 11.7061 44.8008 11.7061C44.5467 11.7061 44.3425 11.8077 44.1904 12.0088C44.0385 12.2098 43.9619 12.4832 43.9619 12.8291V15.5107H42.4717V10.6846H43.9619V11.4385H43.9805C44.1345 11.1804 44.3509 10.9716 44.6289 10.8096C44.907 10.6475 45.2109 10.5664 45.541 10.5664C46.2222 10.5664 46.6894 10.8666 46.9404 11.4668C47.3075 10.8667 47.8485 10.5665 48.5615 10.5664ZM36.3125 9.99023H33.9277V11.6484H36.1191V12.8828H33.9277V15.5078H32.4053V8.75H36.3125V9.99023ZM39.0186 13.3369C38.5344 13.3999 38.292 13.6181 38.292 13.9922C38.292 14.1621 38.3509 14.3012 38.4688 14.4092C38.5868 14.5172 38.7462 14.5723 38.9473 14.5723C39.2263 14.5723 39.4548 14.4753 39.6309 14.2822C39.8068 14.0892 39.8945 13.8448 39.8945 13.5488V13.2236L39.0186 13.3369ZM53.6504 11.7051C53.2988 11.7053 53.0259 11.8266 52.8311 12.0684C52.636 12.3104 52.5391 12.6527 52.5391 13.0957C52.5391 14.0228 52.9132 14.4862 53.6602 14.4863C54.4074 14.4863 54.7295 14.0099 54.7295 13.0576C54.7294 12.1565 54.3695 11.7051 53.6504 11.7051ZM45.8506 2.2002C46.5286 2.20026 47.0983 2.41008 47.4834 2.82812C47.8685 3.24624 48.0605 3.8131 48.0605 4.5293V5.15527H44.9141C44.9641 5.85545 45.4061 6.207 46.2383 6.20703C46.7693 6.20703 47.2356 6.08105 47.6377 5.83008V6.9043C47.1916 7.14328 46.6115 7.2617 45.8984 7.26172C45.1194 7.26172 44.5141 7.04621 44.084 6.61426C43.6539 6.18217 43.4375 5.57976 43.4375 4.80664C43.4375 4.03355 43.6698 3.37144 44.1348 2.90332C44.5999 2.43518 45.1724 2.2002 45.8506 2.2002ZM39.4043 3.03516H39.4238C39.7879 2.47901 40.283 2.2002 40.9082 2.2002C42.0013 2.20035 42.5479 2.86143 42.5479 4.18066V7.14453H41.0635V4.40137C41.0635 3.69433 40.8059 3.34099 40.291 3.34082C40.027 3.34082 39.8134 3.43977 39.6494 3.6377C39.4854 3.83575 39.4043 4.08749 39.4043 4.39258V7.14551H37.915V0H39.4043V3.03516ZM37.1514 1.625H35.2236V7.14453H33.6973V1.625H31.7793V0.385742H37.1514V1.625ZM45.8418 3.2041C45.6029 3.20423 45.3966 3.30305 45.2217 3.50098C45.0467 3.69899 44.9423 3.94525 44.9043 4.24121H46.6816C46.6816 3.55003 46.4009 3.2041 45.8418 3.2041Z" fill="#37384A"/>
<path d="M21.0141 0.197998H2.78781C1.24814 0.197998 0 1.44615 0 2.98582V21.2122C0 22.7518 1.24814 24 2.78781 24H21.0141C22.5537 24 23.8019 22.7518 23.8019 21.2122V2.98582C23.8019 1.44615 22.5537 0.197998 21.0141 0.197998Z" fill="#EA243F"/>
<path d="M3.62598 9.56182H5.32847V15.9707H6.87692V9.56182H8.5584V8.22842H3.62598V9.56182Z" fill="white"/>
<path d="M10.3119 8.22842H9.4707V15.9707H11.0292V13.0168H13.4288V11.6844H11.0292V9.56182H13.7159V8.22842H11.0292H10.3119Z" fill="white"/>
<path d="M18.6173 8.22842V11.2843H16.2997V8.22842H14.7412V15.9707H16.2997V12.6587H18.6173V15.9707H20.1758V8.22842H18.6173Z" fill="white"/>
</svg>
