<svg width="20" height="20" viewBox="0 0 20 20" fill="none" xmlns="http://www.w3.org/2000/svg">
<g clip-path="url(#clip0_79_528)">
<path d="M5.83203 5.83325H4.9987C4.55667 5.83325 4.13275 6.00885 3.82019 6.32141C3.50763 6.63397 3.33203 7.05789 3.33203 7.49992V14.9999C3.33203 15.4419 3.50763 15.8659 3.82019 16.1784C4.13275 16.491 4.55667 16.6666 4.9987 16.6666H12.4987C12.9407 16.6666 13.3646 16.491 13.6772 16.1784C13.9898 15.8659 14.1654 15.4419 14.1654 14.9999V14.1666" stroke="#252E3D" stroke-linecap="round" stroke-linejoin="round"/>
<path d="M16.9875 5.48759C17.3157 5.15938 17.5001 4.71424 17.5001 4.25009C17.5001 3.78594 17.3157 3.34079 16.9875 3.01259C16.6593 2.68438 16.2142 2.5 15.75 2.5C15.2858 2.5 14.8407 2.68438 14.5125 3.01259L7.5 10.0001V12.5001H10L16.9875 5.48759Z" stroke="#252E3D" stroke-linecap="round" stroke-linejoin="round"/>
<path d="M13.332 4.16675L15.832 6.66675" stroke="#252E3D" stroke-linecap="round" stroke-linejoin="round"/>
</g>
<defs>
<clipPath id="clip0_79_528">
<rect width="20" height="20" fill="white"/>
</clipPath>
</defs>
</svg>
