<svg width="122" height="44" viewBox="0 0 122 44" fill="none" xmlns="http://www.w3.org/2000/svg">
<g clip-path="url(#clip0_10_265)">
<path d="M76.3926 34.707C78.9198 34.7071 80.1836 35.9647 80.1836 38.4824V43.7695H77.5977V42.498H77.5625C76.9674 43.4883 76.0873 43.9834 74.9229 43.9834C74.0634 43.9834 73.3876 43.7398 72.8936 43.2539C72.3995 42.768 72.1534 42.117 72.1533 41.3066C72.1533 39.5902 73.1711 38.5999 75.208 38.334L77.6143 38.0146C77.6142 37.0465 77.0886 36.5626 76.04 36.5625C74.9913 36.5625 73.9806 36.8759 73.0273 37.5049V35.4492C73.4075 35.253 73.9295 35.081 74.5889 34.9307C75.2501 34.7803 75.8507 34.707 76.3926 34.707ZM105.097 34.707C107.624 34.7071 108.888 35.9647 108.888 38.4824V43.7695H106.302V42.498H106.267C105.672 43.4883 104.791 43.9834 103.627 43.9834C102.768 43.9834 102.092 43.7398 101.598 43.2539C101.104 42.768 100.857 42.117 100.857 41.3066C100.857 39.5902 101.875 38.5999 103.912 38.334L106.318 38.0146C106.318 37.0465 105.793 36.5626 104.744 36.5625C103.695 36.5625 102.685 36.8759 101.731 37.5049V35.4492C102.112 35.253 102.634 35.081 103.293 34.9307C103.954 34.7803 104.555 34.707 105.097 34.707ZM85.084 43.7695H82.3496V30.6709H85.084V43.7695ZM62.2979 36.3223H67.4385V31.3799H70.2432V43.7686H67.4385V38.7227H62.2979V43.7686H59.502V31.3799H62.2979V36.3223ZM90.3809 40.6914C90.4378 40.9628 90.4823 41.2917 90.5117 41.6768H90.5625C90.5919 41.2734 90.6435 40.9341 90.7188 40.6572L92.2412 34.9209H94.8457L96.2129 40.6914C96.2478 40.8363 96.2881 41.1707 96.334 41.6934H96.3945C96.4239 41.3596 96.4698 41.0252 96.5322 40.6914L97.6836 34.9209H100.219L97.665 43.7686H94.793L93.4863 38.585C93.4 38.2384 93.3509 37.8621 93.3398 37.4531H93.2881C93.2477 37.9023 93.1915 38.2674 93.1162 38.5498L91.7139 43.7686H88.877L86.375 34.9209H89.1611L90.3809 40.6914ZM113.788 43.7686H111.053V34.9209H113.788V43.7686ZM76.0068 39.7861C75.1179 39.9017 74.6729 40.3015 74.6729 40.9873C74.6729 41.2989 74.7815 41.5539 74.998 41.752C75.2147 41.9499 75.507 42.0507 75.876 42.0508C76.3883 42.0508 76.8076 41.8733 77.1309 41.5195C77.4541 41.1656 77.6152 40.7176 77.6152 40.1748V39.5791L76.0068 39.7861ZM104.711 39.7861C103.822 39.9017 103.377 40.3015 103.377 40.9873C103.377 41.2989 103.486 41.5539 103.702 41.752C103.919 41.9499 104.211 42.0507 104.58 42.0508C105.092 42.0508 105.512 41.8733 105.835 41.5195C106.158 41.1656 106.319 40.7176 106.319 40.1748V39.5791L104.711 39.7861ZM112.438 30.7129C112.898 30.7129 113.284 30.843 113.576 31.1016C113.868 31.3601 114.014 31.6956 114.014 32.1045C114.014 32.5133 113.868 32.86 113.576 33.124C113.284 33.3897 112.906 33.5215 112.438 33.5215C111.977 33.5214 111.598 33.3844 111.305 33.1113C111.011 32.8381 110.864 32.5023 110.864 32.1045C110.864 31.7066 111.011 31.3619 111.305 31.1016C111.598 30.8431 111.977 30.713 112.438 30.7129ZM119.078 19.3701C119.471 19.3701 119.868 19.3995 120.271 19.46C120.676 19.5205 121.075 19.6081 121.466 19.7236V21.833C121.121 21.6313 120.749 21.4807 120.354 21.3799C119.96 21.279 119.571 21.2295 119.189 21.2295C119.011 21.2295 118.842 21.2462 118.683 21.2773C118.523 21.3085 118.384 21.3546 118.265 21.415C118.145 21.4755 118.047 21.5521 117.978 21.6475C117.908 21.7428 117.875 21.8516 117.875 21.9727C117.875 22.1339 117.927 22.2713 118.031 22.3867C118.136 22.5021 118.27 22.6013 118.437 22.6855C118.604 22.7699 118.789 22.8432 118.995 22.9092C119.199 22.9752 119.403 23.0436 119.605 23.1133C119.969 23.2398 120.298 23.3789 120.592 23.5273C120.885 23.6776 121.137 23.854 121.348 24.0537C121.559 24.2554 121.721 24.4922 121.833 24.7617C121.945 25.033 122.002 25.3556 122.002 25.7295C122.002 26.254 121.888 26.702 121.66 27.0742C121.432 27.4463 121.129 27.7468 120.751 27.9814C120.373 28.2143 119.937 28.3849 119.445 28.4912C118.951 28.5975 118.441 28.6513 117.91 28.6514C116.935 28.6514 116.032 28.5001 115.2 28.2012L115.199 28.2002V25.9883C115.649 26.2596 116.097 26.4618 116.545 26.5938C116.991 26.7258 117.414 26.791 117.812 26.791C118.297 26.791 118.679 26.7256 118.958 26.5938C119.237 26.4617 119.379 26.2597 119.379 25.9883C119.379 25.816 119.315 25.6711 119.188 25.5557C119.062 25.4401 118.898 25.3391 118.699 25.2529C118.501 25.1668 118.283 25.0883 118.046 25.0205C117.809 24.9508 117.581 24.8733 117.362 24.7871C117.01 24.6551 116.701 24.5125 116.433 24.3604C116.164 24.2082 115.939 24.0298 115.759 23.8281C115.577 23.6265 115.439 23.3937 115.344 23.1279C115.248 22.862 115.2 22.5477 115.2 22.1846C115.2 21.6898 115.309 21.2628 115.525 20.9072C115.742 20.5497 116.031 20.2577 116.391 20.0303C116.751 19.8029 117.164 19.6357 117.629 19.5293C118.094 19.423 118.577 19.3701 119.078 19.3701ZM98.5654 19.3701C100.058 19.3701 101.19 19.7825 102.027 20.6094C102.863 21.4364 103.282 22.5298 103.282 23.8887C103.282 25.3574 102.851 26.5184 101.989 27.3711C101.126 28.2237 99.9449 28.6493 98.4463 28.6494H98.4443C96.9676 28.6494 95.8068 28.2362 94.9619 27.4092C94.1171 26.5822 93.6944 25.4622 93.6943 24.0449C93.6943 22.6274 94.1337 21.4364 95.0098 20.6094C95.8858 19.7826 97.0724 19.3701 98.5654 19.3701ZM107.643 24.6826C107.643 25.9332 108.138 26.5566 109.13 26.5566C109.62 26.5566 110.014 26.3868 110.308 26.0439C110.601 25.7011 110.748 25.2351 110.748 24.6484V19.585H113.474V28.4326H110.75V27.085H110.706C110.032 28.1283 109.128 28.6493 107.997 28.6494C105.944 28.6494 104.917 27.4078 104.917 24.9248V19.585H107.643V24.6826ZM72.0322 19.3701C74.5593 19.3702 75.8231 20.628 75.8232 23.1455V28.4326H73.2373V27.1621H73.2021C72.6071 28.1523 71.7269 28.6475 70.5625 28.6475C69.703 28.6474 69.0272 28.4029 68.5332 27.917C68.0393 27.4311 67.793 26.7802 67.793 25.9697C67.7931 24.2534 68.8108 23.263 70.8477 22.9971L73.2539 22.6787C73.2539 21.7105 72.7283 21.2257 71.6797 21.2256C70.6309 21.2256 69.6202 21.54 68.667 22.1689V20.1133C69.0472 19.9171 69.5691 19.7441 70.2285 19.5938C70.8897 19.4434 71.4904 19.3701 72.0322 19.3701ZM89.1689 19.3701C91.0955 19.3702 92.0596 20.5569 92.0596 22.9297V28.4326H89.332V23.3857C89.3319 22.1023 88.8579 21.459 87.9121 21.459C87.4624 21.4591 87.0954 21.6515 86.8145 22.0381C86.5316 22.4232 86.3897 22.9056 86.3896 23.4814V28.4326H83.6553V23.335C83.6553 22.0843 83.1902 21.4609 82.2627 21.4609C81.7962 21.4609 81.4218 21.6461 81.1426 22.0146C80.8634 22.3832 80.7217 22.8841 80.7217 23.5186V28.4346H77.9873V19.5869H80.7217V20.9688H80.7568C81.0396 20.4959 81.4359 20.1124 81.9463 19.8154C82.4569 19.5184 83.016 19.3701 83.6221 19.3701C84.8727 19.3702 85.7304 19.9203 86.1914 21.0205C86.8655 19.9202 87.8594 19.3701 89.1689 19.3701ZM66.6777 18.3154H62.2998V21.3564H66.3232V23.6191H62.2998V28.4307H59.5039V16.042H66.6777V18.3154ZM71.6445 24.4502C70.7558 24.5657 70.3117 24.9649 70.3115 25.6504C70.3115 25.9621 70.419 26.218 70.6357 26.416C70.8524 26.614 71.1447 26.7148 71.5137 26.7148C72.0261 26.7148 72.4453 26.5365 72.7686 26.1826C73.0917 25.8288 73.2538 25.3815 73.2539 24.8389V24.2422L71.6445 24.4502ZM98.5127 21.4609C97.8668 21.4612 97.3657 21.6826 97.0078 22.126C96.6497 22.5698 96.4717 23.1974 96.4717 24.0098C96.4717 25.7095 97.1584 26.5585 98.5303 26.5586C99.9023 26.5586 100.494 25.6852 100.494 23.9395C100.494 22.2878 99.8327 21.4612 98.5127 21.4609ZM84.1895 4.03418C85.4345 4.03418 86.4814 4.41731 87.1885 5.18359C87.8956 5.95012 88.249 6.99072 88.249 8.30371V9.45117H82.4707C82.5625 10.7348 83.3742 11.3789 84.9023 11.3789C85.8775 11.3789 86.7334 11.1477 87.4717 10.6875V12.6562C86.6525 13.0945 85.5869 13.3135 84.2773 13.3135C82.8467 13.3134 81.7351 12.9172 80.9453 12.125C80.1557 11.3329 79.7598 10.2288 79.7598 8.81152C79.7598 7.39405 80.1851 6.1795 81.0391 5.32129C81.8931 4.46307 82.9442 4.03418 84.1895 4.03418ZM72.3535 5.56348H72.3887C73.0572 4.54408 73.9664 4.03418 75.1143 4.03418C77.1216 4.03425 78.1259 5.2446 78.126 7.66309V13.0986H75.4004V8.07031C75.4003 6.77396 74.9263 6.12695 73.9805 6.12695C73.4959 6.12705 73.1048 6.30814 72.8037 6.6709C72.5025 7.03392 72.3536 7.49454 72.3535 8.05371V13.1006H69.6191V0H72.3535V5.56348ZM68.2178 2.98047H64.6777V13.0967H61.875V2.98047H58.3525V0.708008H68.2178V2.98047ZM84.1748 5.87305C83.7359 5.87305 83.3575 6.05498 83.0361 6.41797C82.7147 6.78106 82.5219 7.23259 82.4521 7.77539H85.7158C85.7158 6.50827 85.2015 5.87307 84.1748 5.87305Z" fill="white"/>
<path d="M38.5857 0.364868H5.11892C2.29182 0.364868 0 2.65304 0 5.47565V38.8892C0 41.7118 2.29182 43.9999 5.11892 43.9999H38.5857C41.4128 43.9999 43.7046 41.7118 43.7046 38.8892V5.47565C43.7046 2.65304 41.4128 0.364868 38.5857 0.364868Z" fill="white"/>
<path d="M6.65808 17.531H9.78417V29.2783H12.6274V17.531H15.7149V15.0865H6.65808V17.531Z" fill="#EA243F"/>
<path d="M18.9347 15.0865H17.39V29.2783H20.2516V23.8649H24.6579V21.4205H20.2516V17.531H25.185V15.0865H20.2516H18.9347Z" fill="#EA243F"/>
<path d="M34.1851 15V20.6022H29.9295V15H27.0679V29.1917H29.9295V23.12H34.1851V29.1917H37.0467V15H34.1851Z" fill="#EA243F"/>
</g>
<defs>
<clipPath id="clip0_10_265">
<rect width="122" height="44" fill="white"/>
</clipPath>
</defs>
</svg>
